<svg width="512" height="512" viewBox="0 0 512 512" fill="none" xmlns="http://www.w3.org/2000/svg">
<path d="M256 0C397.312 0 512 114.688 512 256C512 397.312 397.312 512 256 512C114.688 512 0 397.312 0 256C0 114.688 114.688 0 256 0V0ZM256 460.8C369.152 460.8 460.8 369.152 460.8 256C460.8 142.848 369.152 51.2004 256 51.2004C142.848 51.2004 51.2004 142.848 51.2004 256C51.2004 369.152 142.848 460.8 256 460.8ZM281.6 256V358.4H230.4V256H153.6L256.001 153.6L358.401 256H281.601H281.6Z" fill="black"/>
</svg>
