<svg width="512" height="487" viewBox="0 0 512 487" fill="none" xmlns="http://www.w3.org/2000/svg">
<path d="M256 0C296.737 0 335.805 16.1826 364.611 44.9886C393.418 73.794 409.6 112.863 409.6 153.6V179.2H512V230.4H482.125L462.745 462.925C462.213 469.322 459.297 475.284 454.574 479.634C449.851 483.981 443.668 486.398 437.248 486.4H74.7516C68.3322 486.398 62.1486 483.981 57.426 479.634C52.7034 475.285 49.7868 469.323 49.254 462.925L29.8494 230.4H0V179.2H102.4V153.6C102.4 112.863 118.583 73.794 147.389 44.9886C176.195 16.1832 215.263 0 256 0H256ZM430.746 230.4H81.2286L98.304 435.2H413.671L430.746 230.4H430.746ZM256 51.2004C229.729 51.2004 204.461 61.2978 185.425 79.4046C166.39 97.5114 155.041 122.242 153.728 148.481L153.6 153.601V179.201H358.4V153.601C358.4 127.329 348.303 102.062 330.196 83.0262C312.09 63.9906 287.36 52.6422 261.12 51.3288L256 51.201L256 51.2004Z" fill="black"/>
</svg>
