<svg width="397" height="512" viewBox="0 0 397 512" fill="none" xmlns="http://www.w3.org/2000/svg">
<path d="M24.8014 0.00116194H372.026C385.724 0.00116194 396.828 11.1056 396.828 24.8031V499.584C396.828 499.588 396.828 499.594 396.828 499.599C396.828 506.448 391.276 512 384.427 512C381.981 512 379.701 511.292 377.78 510.07L377.83 510.099L198.414 397.573L18.9978 510.074C17.1266 511.266 14.8462 511.974 12.4007 511.974C5.5554 511.974 0.00523163 506.428 0 499.583V499.582V24.802C0 11.1044 11.1044 0 24.802 0L24.8014 0.00116194ZM347.225 49.6051H49.6034V432.346L198.414 339.067L347.225 432.346V49.6051V49.6051Z" fill="black"/>
</svg>
