<svg width="512" height="512" viewBox="0 0 512 512" fill="none" xmlns="http://www.w3.org/2000/svg">
<path d="M281.6 460.8V512H230.4V460.8H25.6002C11.4618 460.8 0 449.338 0 435.2V25.6002C0 11.4618 11.4618 0 25.6002 0H179.2C179.236 0 179.279 0 179.321 0C209.816 0 237.189 13.3632 255.905 34.5528L256 34.6626C274.811 13.3632 302.184 0 332.679 0C332.721 0 332.764 0 332.807 0H486.4C500.538 0 512 11.4618 512 25.6002V435.2C512 449.338 500.538 460.8 486.4 460.8H281.6H281.6ZM460.799 409.6V51.201H332.799C304.523 51.201 281.6 74.1239 281.6 102.401V409.6H460.8H460.799ZM230.399 409.6V102.401C230.399 74.1239 207.476 51.201 179.199 51.201H51.1998V409.6H230.4H230.399Z" fill="black"/>
</svg>
