<svg width="512" height="512" viewBox="0 0 512 512" fill="none" xmlns="http://www.w3.org/2000/svg">
<path d="M256 512C114.611 512 0 397.389 0 256C0 114.611 114.611 0 256 0C397.389 0 512 114.611 512 256C512 397.389 397.389 512 256 512V512ZM256 460.8C369.108 460.8 460.8 369.108 460.8 256C460.8 142.892 369.108 51.2004 256 51.2004C142.892 51.2004 51.2004 142.892 51.2004 256C51.2004 369.108 142.892 460.8 256 460.8ZM230.477 358.4L121.856 249.779L158.054 213.581L230.477 286.003L375.27 141.184L411.494 177.383L230.477 358.4V358.4Z" fill="black"/>
</svg>
