<svg width="512" height="512" viewBox="0 0 512 512" fill="none" xmlns="http://www.w3.org/2000/svg">
<path d="M116.8 347.288C148.641 360.158 170.697 390.818 170.697 426.63C170.697 473.767 132.485 511.979 85.3487 511.979C38.212 511.979 0 473.767 0 426.63C0 389.678 23.483 358.211 56.3392 346.338L56.9338 346.15V165.84C23.4963 153.772 0.0253307 122.312 0.0253307 85.3693C0.0253307 38.2327 38.2374 0.0206623 85.374 0.0206623C132.511 0.0206623 170.723 38.2327 170.723 85.3693C170.723 122.312 147.252 153.772 114.409 165.652L113.814 165.84V255.995C137.59 238.134 167.111 227.554 199.134 227.554H312.894C312.896 227.554 312.896 227.554 312.898 227.554C352.03 227.554 385.012 201.218 395.084 165.303L395.228 164.702C363.372 151.839 341.303 121.171 341.303 85.3487C341.303 38.212 379.515 0 426.651 0C473.788 0 512 38.212 512 85.3487C512 123.061 487.541 155.06 453.621 166.348L453.019 166.522C441.005 233.921 382.849 284.429 312.895 284.434H199.135C199.134 284.434 199.133 284.434 199.132 284.434C159.999 284.434 127.017 310.771 116.945 346.686L116.801 347.286L116.8 347.288ZM85.374 398.195C69.6671 398.195 56.9338 410.928 56.9338 426.635C56.9338 442.342 69.6671 455.076 85.374 455.076C101.081 455.076 113.814 442.342 113.814 426.635C113.814 410.928 101.081 398.195 85.374 398.195ZM85.374 56.9151C69.6671 56.9151 56.9338 69.6485 56.9338 85.3553C56.9338 101.062 69.6671 113.796 85.374 113.796C101.081 113.796 113.814 101.062 113.814 85.3553C113.814 69.6485 101.081 56.9151 85.374 56.9151ZM426.654 56.9151C410.947 56.9151 398.214 69.6485 398.214 85.3553C398.214 101.062 410.947 113.796 426.654 113.796C442.361 113.796 455.094 101.062 455.094 85.3553C455.094 69.6485 442.361 56.9151 426.654 56.9151Z" fill="black"/>
</svg>
