<svg width="512" height="466" viewBox="0 0 512 466" fill="none" xmlns="http://www.w3.org/2000/svg">
<path d="M465.455 418.909H512V465.454H0V418.909H46.5453V23.2729C46.5453 10.4198 56.9651 0 69.8182 0H442.182C455.035 0 465.455 10.4198 465.455 23.2729V418.909ZM418.909 418.909V46.5453H93.0916V418.909H418.909ZM162.909 209.454H232.727V256H162.909V209.454V209.454ZM162.909 116.364H232.727V162.909H162.909V116.364V116.364ZM162.909 302.546H232.727V349.091H162.909V302.546ZM279.273 302.546H349.091V349.091H279.273V302.546ZM279.273 209.454H349.091V256H279.273V209.454V209.454ZM279.273 116.364H349.091V162.909H279.273V116.364V116.364Z" fill="black"/>
</svg>
