<svg width="512" height="512" viewBox="0 0 512 512" fill="none" xmlns="http://www.w3.org/2000/svg">
<path d="M384 51.1998H486.4C500.538 51.1998 512 62.6616 512 76.7999V486.4C512 500.538 500.538 512 486.4 512H25.6002C11.4618 512 0 500.538 0 486.4V76.7999C0 62.6616 11.4618 51.1998 25.6002 51.1998H128V0H179.2V51.1998H332.8V0H384V51.1998V51.1998ZM332.8 102.4H179.2V153.599H128V102.4H51.2004V204.8H460.8V102.4H384V153.599H332.801V102.4H332.8ZM460.8 255.999H51.1998V460.799H460.8V255.999Z" fill="black"/>
</svg>
