<svg width="512" height="512" viewBox="0 0 512 512" fill="none" xmlns="http://www.w3.org/2000/svg">
<path d="M460.8 25.6002C474.939 25.6002 486.4 37.062 486.4 51.2004V460.801C486.4 474.94 474.939 486.401 460.8 486.401H51.1992C37.0608 486.401 25.599 474.94 25.599 460.801V51.2004C25.599 37.062 37.0608 25.6002 51.1992 25.6002H460.8V25.6002ZM51.1998 0C22.923 0 0 22.923 0 51.1998V460.8C0 489.078 22.923 512 51.1998 512H460.8C489.078 512 512 489.078 512 460.8V51.1998C512 22.923 489.078 0 460.8 0H51.1998V0Z" fill="black"/>
</svg>
