<svg width="512" height="461" viewBox="0 0 512 461" fill="none" xmlns="http://www.w3.org/2000/svg">
<path d="M25.6002 0H486.4C500.538 0 512 11.4618 512 25.6002V435.2C512 449.338 500.538 460.8 486.4 460.8H25.6002C11.4618 460.8 0 449.338 0 435.2V25.6002C0 11.4618 11.4618 0 25.6002 0V0ZM51.2004 51.1998V409.599H460.8V51.1998H51.2004V51.1998ZM256 307.2H409.6V358.4H256V307.2ZM170.675 230.4L98.2529 158.003L134.477 121.78L243.072 230.4L134.477 339.021L98.2529 302.798L170.675 230.401V230.4Z" fill="black"/>
</svg>
