<svg width="512" height="461" viewBox="0 0 512 461" fill="none" xmlns="http://www.w3.org/2000/svg">
<path d="M414.477 194.019C468.336 194.019 512 150.587 512 97.0102C512 43.4333 468.337 0 414.477 0C369.034 0 330.852 30.9167 320.026 72.7577H304.763C264.366 72.7577 231.619 105.332 231.619 145.515V315.284C231.619 328.678 220.703 339.537 207.237 339.537H191.975C181.149 297.694 142.966 266.779 97.5238 266.779C43.6631 266.779 0 310.212 0 363.788C0 417.366 43.6625 460.799 97.5238 460.799C142.966 460.799 181.149 429.881 191.975 388.041H207.237C247.634 388.041 280.381 355.465 280.381 315.283V145.515C280.381 132.12 291.297 121.262 304.763 121.262H320.026C330.852 163.104 369.034 194.019 414.477 194.019V194.019ZM146.286 363.788C146.286 390.579 124.455 412.295 97.5244 412.295C70.5941 412.295 48.7625 390.579 48.7625 363.788C48.7625 337.001 70.5941 315.284 97.5244 315.284C124.455 315.284 146.286 337 146.286 363.788ZM463.237 97.0096C463.237 123.798 441.405 145.515 414.474 145.515C387.543 145.515 365.712 123.798 365.712 97.0096C365.712 70.2209 387.543 48.5045 414.474 48.5045C441.405 48.5045 463.237 70.2215 463.237 97.0096Z" fill="black"/>
</svg>
