<svg width="461" height="512" viewBox="0 0 461 512" fill="none" xmlns="http://www.w3.org/2000/svg">
<path d="M102.399 102.4V25.6002C102.399 11.4618 113.861 0 128 0H435.199C449.337 0 460.799 11.4618 460.799 25.6002V383.999C460.799 398.138 449.337 409.599 435.199 409.599H358.399V486.399C358.399 500.53 346.879 511.999 332.62 511.999H25.7789C25.7333 511.999 25.6793 512 25.6253 512C11.4816 512 0.0144 500.541 0 486.401V486.4L0.0767943 128.001C0.0767943 113.87 11.5968 102.401 25.8557 102.401H102.399V102.4ZM153.599 102.4H358.399V358.4H409.598V51.2003H153.598V102.4H153.599Z" fill="black"/>
</svg>
