<svg width="461" height="512" viewBox="0 0 461 512" fill="none" xmlns="http://www.w3.org/2000/svg">
<path d="M51.1998 256C51.1998 264.436 63.0012 279.122 90.3678 293.538C125.798 312.184 176.051 323.369 230.4 323.369C284.749 323.369 335.002 312.184 370.432 293.538C397.799 279.122 409.6 264.436 409.6 256V197.498C367.36 224.983 302.772 242.527 230.4 242.527C158.029 242.527 93.4398 224.958 51.1998 197.498V256V256ZM409.6 332.235C367.36 359.721 302.772 377.262 230.4 377.262C158.029 377.262 93.4398 359.693 51.1998 332.235V390.738C51.1998 399.171 63.0012 413.857 90.3678 428.275C125.798 446.922 176.051 458.104 230.4 458.104C284.749 458.104 335.002 446.922 370.432 428.275C397.799 413.857 409.6 399.171 409.6 390.738V332.235V332.235ZM0 390.738V121.263C0 54.2988 103.168 0 230.4 0C357.632 0 460.8 54.2988 460.8 121.263V390.738C460.8 457.7 357.632 512 230.4 512C103.168 512 0 457.7 0 390.738V390.738ZM230.4 188.632C284.749 188.632 335.002 177.448 370.432 158.801C397.799 144.384 409.6 129.698 409.6 121.263C409.6 112.828 397.799 98.142 370.432 83.7252C335.002 65.0778 284.749 53.8944 230.4 53.8944C176.051 53.8944 125.798 65.0778 90.3678 83.7252C63.0012 98.142 51.1998 112.828 51.1998 121.263C51.1998 129.698 63.0012 144.384 90.3678 158.801C125.798 177.448 176.051 188.632 230.4 188.632V188.632Z" fill="black"/>
</svg>
