<svg width="512" height="512" viewBox="0 0 512 512" fill="none" xmlns="http://www.w3.org/2000/svg">
<path d="M0 219.429H512V292.571H0V219.429V219.429ZM256 109.714C225.704 109.714 201.143 85.1538 201.143 54.8572C201.143 24.5606 225.704 0 256 0C286.297 0 310.858 24.5606 310.858 54.8572C310.858 85.1538 286.297 109.714 256 109.714ZM256 512.001C225.704 512.001 201.143 487.44 201.143 457.144C201.143 426.847 225.704 402.287 256 402.287C286.297 402.287 310.858 426.847 310.858 457.144C310.858 487.44 286.297 512.001 256 512.001Z" fill="black"/>
</svg>
