<svg width="512" height="512" viewBox="0 0 512 512" fill="none" xmlns="http://www.w3.org/2000/svg">
<path d="M128 128V25.6002C128 11.4618 139.461 0 153.6 0H486.4C500.538 0 512 11.4618 512 25.6002V358.4C512 372.538 500.538 384 486.4 384H384V486.221C384 500.455 372.506 512 358.221 512H25.7796C25.7718 512 25.7628 512 25.7538 512C11.5302 512 0 500.47 0 486.246C0 486.237 0 486.228 0 486.219V486.22L0.0767989 153.779C0.0767989 139.545 11.571 128 25.8558 128H128V128ZM179.199 128H358.22C372.454 128 383.999 139.494 383.999 153.779V332.8H460.799V51.2004H179.199V128V128ZM51.2766 179.2L51.1998 460.8H332.799V179.2H51.2766V179.2Z" fill="black"/>
</svg>
