<svg width="512" height="512" viewBox="0 0 512 512" fill="none" xmlns="http://www.w3.org/2000/svg">
<path d="M108.416 113.997C72.9503 150.768 51.1002 200.879 51.1002 256.094C51.1002 369.201 142.792 460.893 255.9 460.893C284.123 460.893 311.012 455.184 335.477 444.858L334.131 445.362C337.076 426.162 330.624 407.73 327.987 401.279C322.1 386.943 302.694 362.444 270.311 328.473C261.658 319.385 262.221 312.396 265.319 291.686L265.652 289.356C267.751 275.174 271.284 266.777 319.028 259.199C343.296 255.359 349.671 265.036 358.503 278.476L361.472 282.879C369.869 295.167 376.09 297.983 385.485 302.233C389.709 304.153 394.957 306.585 401.997 310.553C418.688 320.102 418.688 330.879 418.688 354.483V357.171C418.688 367.181 417.715 375.987 416.179 383.641C443.993 348.969 460.818 304.443 460.818 255.986C460.818 172.024 410.304 99.8597 338.01 68.2254L336.692 67.7111C322.535 77.2601 303.105 90.8021 296.321 100.095C292.865 104.831 287.95 129.074 272.001 131.071C267.854 131.583 262.248 131.225 256.308 130.841C240.385 129.816 218.625 128.409 211.662 147.327C207.233 159.308 206.465 191.871 220.775 208.767C223.079 211.455 223.514 216.447 221.953 222.053C219.905 229.4 215.783 233.88 214.478 234.802C212.02 233.369 207.105 227.66 203.751 223.794C195.738 214.45 185.703 202.802 172.75 199.218C168.039 197.912 162.869 196.837 157.825 195.762C143.771 192.818 127.873 189.464 124.161 181.58C121.447 175.794 121.473 167.832 121.473 159.435C121.473 148.76 121.473 136.703 116.251 125.003C114.345 120.686 111.699 117.023 108.439 114.016L108.417 113.995L108.416 113.997ZM256 512C114.611 512 0 397.389 0 256C0 114.611 114.611 0 256 0C397.389 0 512 114.611 512 256C512 397.389 397.389 512 256 512V512Z" fill="black"/>
</svg>
