<svg width="512" height="499" viewBox="0 0 512 499" fill="none" xmlns="http://www.w3.org/2000/svg">
<path d="M171.242 57.8314V106.757H48.9266V449.241H440.336V229.073H489.263V473.704C489.263 487.214 478.31 498.167 464.799 498.167H24.4633C10.9528 498.167 0 487.214 0 473.704V82.2941C0 68.7836 10.9528 57.8308 24.4633 57.8308H171.242V57.8314ZM414.65 106.757L342.483 34.591L377.074 0L507.707 130.633C510.36 133.289 512 136.955 512 141.006C512 149.108 505.436 155.676 497.336 155.683H293.557C266.536 155.683 244.631 177.588 244.631 204.609V351.388H195.705V204.609C195.705 150.567 239.515 106.757 293.558 106.757H414.65L414.65 106.757Z" fill="black"/>
</svg>
