<svg width="512" height="288" viewBox="0 0 512 288" fill="none" xmlns="http://www.w3.org/2000/svg">
<path d="M193.135 287.881L147.465 275.63L166.078 206.119C136.686 195.114 111.322 180.136 89.1164 161.515L89.5194 161.844L38.5987 212.789L5.13248 179.323L56.077 128.402C28.3437 95.3675 8.57151 54.7433 0.248338 10.0926L0 8.49057L46.5455 0C64.4967 99.3819 151.438 174.782 256 174.782C360.538 174.782 447.503 99.3825 465.455 0L512 8.46729C503.44 54.7273 483.675 95.3597 455.619 128.803L455.947 128.402L506.868 179.323L473.401 212.789L422.481 161.845C400.678 180.137 375.314 195.114 347.711 205.528L345.922 206.12L364.535 275.654L318.865 287.882L300.228 218.348C286.931 220.741 271.626 222.11 256.001 222.11C240.375 222.11 225.07 220.741 210.197 218.118L211.773 218.348L193.136 287.882L193.135 287.881Z" fill="black"/>
</svg>
