<svg width="512" height="426" viewBox="0 0 512 426" fill="none" xmlns="http://www.w3.org/2000/svg">
<path d="M256 0C383.586 0 489.734 91.809 512 212.959C489.757 334.108 383.586 425.917 256 425.917C128.414 425.917 22.2664 334.108 0 212.959C22.2425 91.809 128.414 0 256 0ZM256 378.593C356.839 378.57 441.306 308.504 463.397 214.402L463.682 212.959C441.227 117.499 356.785 47.5258 256.001 47.5258C155.216 47.5258 70.7743 117.499 48.6061 211.513L48.3189 212.958C70.695 308.503 155.162 378.57 255.998 378.593H256.001L256 378.593ZM256 319.438C197.193 319.438 149.521 271.766 149.521 212.959C149.521 154.151 197.193 106.479 256 106.479C314.807 106.479 362.479 154.151 362.479 212.959C362.479 271.766 314.807 319.438 256 319.438ZM256 272.114C288.67 272.114 315.155 245.629 315.155 212.959C315.155 180.288 288.671 153.803 256 153.803C223.33 153.803 196.845 180.288 196.845 212.959C196.845 245.629 223.329 272.114 256 272.114Z" fill="black"/>
</svg>
