<svg width="461" height="512" viewBox="0 0 461 512" fill="none" xmlns="http://www.w3.org/2000/svg">
<path d="M460.8 153.599V486.22C460.801 486.274 460.801 486.337 460.801 486.4C460.801 500.476 449.441 511.899 435.389 512H435.379H25.4208C11.3904 512 0.0144 500.634 0 486.606V486.605V25.395C0 11.6478 11.4942 0 25.6512 0H307.123L460.8 153.6V153.599ZM409.6 179.2H281.601V51.1998H51.2004V460.8H409.6V179.2V179.2ZM128 128H204.8V179.2H128V128V128ZM128 230.399H332.8V281.599H128V230.399V230.399ZM128 332.8H332.8V384H128V332.8Z" fill="black"/>
</svg>
