<svg width="472" height="512" viewBox="0 0 472 512" fill="none" xmlns="http://www.w3.org/2000/svg">
<path d="M370.141 277.904V303.168C370.141 373.149 353.365 440.73 321.76 501.389L316.026 512L271.889 487.393C301.195 434.844 317.617 375.979 319.436 314.689L319.613 303.169V277.905H370.141V277.904ZM218.557 202.112H269.085V303.168L268.959 312.743C266.9 385.09 241.649 451.162 200.422 504.199L200.974 503.46L195.138 510.787L155.979 478.853C193.117 433.766 216.338 375.987 218.395 312.858L218.406 312.414L218.557 303.168V202.112V202.112ZM243.822 101.056C313.586 101.056 370.141 157.612 370.141 227.376H319.613C319.613 185.517 285.68 151.584 243.822 151.584C201.963 151.584 168.03 185.517 168.03 227.376V303.168C168.03 359.632 147.313 412.914 110.655 454.17L105.3 459.981L68.7177 425.117C97.2574 395.296 115.432 355.351 117.338 311.187L117.351 310.823L117.502 303.168V227.376C117.502 157.611 174.058 101.056 243.822 101.056V101.056ZM243.822 0.000591798C369.397 0.000591798 471.197 101.8 471.197 227.376V303.168C471.197 346.066 466.093 388.307 456.114 429.235L452.602 442.852L403.843 429.563C413.746 393.259 419.33 355.742 420.467 317.517L420.669 303.167V227.375C420.669 129.705 341.491 50.5276 243.821 50.5276C203.898 50.5276 167.064 63.7569 137.465 86.0704L137.914 85.7459L101.913 49.7194C140.317 18.7454 189.712 0 243.485 0C243.603 0 243.721 0 243.839 0H243.821L243.822 0.000591798ZM66.1656 85.4688L102.192 121.47C81.35 149.011 68.3577 183.516 67.0834 220.994L67.0757 221.288L66.9745 227.376L67.0757 277.904C67.0757 306.2 60.406 333.561 47.8246 358.168L43.8834 365.494L0 340.432C9.60009 323.632 15.2087 304.886 16.3207 285.281L16.5481 277.904V227.376C16.5475 227.182 16.5469 226.951 16.5469 226.72C16.5469 173.068 35.255 123.784 66.5031 85.0372L66.1656 85.4694V85.4688Z" fill="black"/>
</svg>
