<svg width="512" height="461" viewBox="0 0 512 461" fill="none" xmlns="http://www.w3.org/2000/svg">
<path d="M266.598 51.2004H486.4C493.189 51.2004 499.702 53.8974 504.502 58.6986C509.302 63.4998 512 70.011 512 76.8005V435.2C512 441.989 509.302 448.502 504.502 453.302C499.702 458.102 493.189 460.8 486.4 460.8H25.6002C18.8106 460.8 12.2994 458.102 7.4982 453.302C2.697 448.502 0 441.99 0 435.2V25.6002C0 18.8106 2.697 12.2994 7.4982 7.4982C12.2994 2.697 18.8106 0 25.6002 0H215.399L266.598 51.1998V51.2004ZM51.2004 51.2004V409.6H460.8V102.4H245.402L194.202 51.2004H51.201H51.2004ZM281.6 256.001V358.401H230.4V256.001H153.6L256.001 153.6L358.401 256.001H281.601H281.6Z" fill="black"/>
</svg>
