<svg width="512" height="366" viewBox="0 0 512 366" fill="none" xmlns="http://www.w3.org/2000/svg">
<path d="M243.337 251.429H94.9484L49.2343 365.715H0L146.286 0H192L338.286 365.715H289.052L243.338 251.429H243.337ZM225.052 205.715L169.143 65.9432L113.234 205.715H225.051H225.052ZM466.286 195.086V182.858H512V365.715H466.286V353.486C453.181 361.174 437.424 365.715 420.607 365.715C370.112 365.715 329.178 324.781 329.178 274.286C329.178 223.791 370.112 182.857 420.607 182.857C437.424 182.857 453.181 187.397 466.718 195.319L466.285 195.086L466.286 195.086ZM420.572 320C445.819 320 466.286 299.533 466.286 274.286C466.286 249.039 445.819 228.572 420.572 228.572C395.325 228.572 374.858 249.039 374.858 274.286C374.858 299.533 395.325 320 420.572 320Z" fill="black"/>
</svg>
