<svg width="418" height="512" viewBox="0 0 418 512" fill="none" xmlns="http://www.w3.org/2000/svg">
<path d="M311.193 0V51.1998H285.593V134.22C285.593 163.865 292.019 193.126 304.435 220.032L414.054 457.497C422.937 476.774 414.515 499.584 395.264 508.441C390.221 510.796 384.743 512 379.187 512H38.4C17.2032 512 0 494.797 0 473.6C0 468.045 1.203 462.541 3.5328 457.498L113.152 220.032C125.568 193.152 131.994 163.866 131.994 134.221V51.2004H106.394V0.00059967H311.193V0ZM244.326 204.825H173.26C170.598 214.118 167.372 223.283 163.686 232.243L159.641 241.485L58.3932 460.8H359.168L257.945 241.485C252.467 229.607 247.91 217.344 244.326 204.825V204.825ZM183.193 134.221C183.193 140.698 182.937 147.174 182.451 153.626H235.136C234.879 150.528 234.726 147.431 234.598 144.307L234.393 134.22V51.1998H183.194V134.22L183.193 134.221Z" fill="black"/>
</svg>
