<svg width="512" height="443" viewBox="0 0 512 443" fill="none" xmlns="http://www.w3.org/2000/svg">
<path d="M325.818 0C325.822 0 325.826 0 325.829 0C377.242 0 418.92 41.6782 418.92 93.0911C418.92 110.238 414.285 126.302 406.197 140.099L406.435 139.66L512 139.636V186.182H465.455V418.909C465.455 431.762 455.035 442.182 442.182 442.182H69.8182C56.9651 442.182 46.5453 431.762 46.5453 418.909V186.182H0V139.636L105.565 139.66C97.7209 126.306 93.0878 110.247 93.0878 93.1052C93.0878 41.6923 134.766 0.0141823 186.179 0.0141823C213.938 0.0141823 238.859 12.1642 255.914 31.4362L256 31.5349C273.074 12.1593 297.944 0 325.655 0C325.712 0 325.769 0 325.827 0H325.818V0ZM232.727 186.182H93.0911V395.637H232.727V186.182V186.182ZM418.909 186.182H279.273V395.637H418.909V186.182V186.182ZM186.182 46.5458C186.12 46.5453 186.047 46.5453 185.974 46.5453C160.268 46.5453 139.429 67.3843 139.429 93.0905C139.429 117.642 158.437 137.753 182.54 139.511L182.691 139.52L186.182 139.636H232.727V93.0911C232.727 93.0905 232.727 93.09 232.727 93.0889C232.727 69.8716 215.728 50.6242 193.497 47.1153L193.234 47.0809L189.65 46.662L186.182 46.5458V46.5458ZM325.818 46.5458C325.814 46.5458 325.809 46.5458 325.804 46.5458C301.326 46.5458 281.261 65.4409 279.399 89.4409L279.389 89.6007L279.273 93.0916V139.637H325.818C325.823 139.637 325.828 139.637 325.833 139.637C350.311 139.637 370.376 120.742 372.238 96.7418L372.248 96.582L372.364 93.0911C372.364 67.3849 351.525 46.5458 325.818 46.5458V46.5458Z" fill="black"/>
</svg>
