<svg width="492" height="512" viewBox="0 0 492 512" fill="none" xmlns="http://www.w3.org/2000/svg">
<path d="M273.319 457.337H437.31V210.748L245.987 61.954L54.6641 210.748V457.337H218.655V293.345H273.319V457.337H273.319ZM491.974 484.668C491.974 499.763 479.737 512 464.642 512H27.3321C12.2372 512 0 499.763 0 484.668V197.41C0 197.404 0 197.398 0 197.391C0 188.649 4.10426 180.866 10.4903 175.862L10.5499 175.818L229.204 5.7589C233.786 2.16776 239.633 0 245.986 0C252.339 0 258.186 2.16776 262.828 5.80375L262.768 5.7589L481.423 175.818C487.869 180.866 491.973 188.649 491.973 197.391C491.973 197.397 491.973 197.404 491.973 197.411V197.409V484.667L491.974 484.668Z" fill="black"/>
</svg>
