<svg width="512" height="461" viewBox="0 0 512 461" fill="none" xmlns="http://www.w3.org/2000/svg">
<path d="M460.8 51.1998H51.1998V409.6L289.075 171.673C293.708 167.042 300.107 164.178 307.174 164.178C314.242 164.178 320.641 167.042 325.273 171.673L460.8 307.456V51.1998H460.8ZM0 25.4208C0.1008 11.4306 11.4072 0.1152 25.3842 0H25.395H486.605C500.634 0 512 11.3922 512 25.4208V435.379C511.899 449.37 500.593 460.685 486.616 460.8H486.605H25.395C11.3664 460.786 0 449.41 0 435.379V25.4208V25.4208ZM153.6 204.8C125.323 204.8 102.4 181.877 102.4 153.6C102.4 125.323 125.323 102.4 153.6 102.4C181.877 102.4 204.8 125.323 204.8 153.6C204.8 181.877 181.877 204.8 153.6 204.8V204.8Z" fill="black"/>
</svg>
