<svg width="512" height="462" viewBox="0 0 512 462" fill="none" xmlns="http://www.w3.org/2000/svg">
<path d="M72.3966 460.8L71.8848 461.312L71.3472 460.8H25.395C11.3664 460.786 0 449.41 0 435.379V25.4208C0.1008 11.4306 11.4072 0.1152 25.3842 0H25.395H486.605C500.634 0 512 11.3922 512 25.4208V435.379C511.899 449.37 500.593 460.685 486.616 460.8H486.605H72.3966ZM460.8 307.2V51.1998H51.1992V409.6L307.2 153.599L460.8 307.2V307.2ZM460.8 379.597L307.2 225.997L123.596 409.6H460.8V379.597ZM153.599 204.8C125.323 204.8 102.4 181.877 102.4 153.6C102.4 125.323 125.323 102.4 153.599 102.4C181.876 102.4 204.799 125.323 204.799 153.6C204.799 181.877 181.876 204.8 153.599 204.8V204.8Z" fill="black"/>
</svg>
