<svg width="512" height="466" viewBox="0 0 512 466" fill="none" xmlns="http://www.w3.org/2000/svg">
<path d="M255.996 246.213L354.682 344.875L321.771 377.785L279.255 335.269V465.166H232.739V335.222L190.222 377.785L157.312 344.874L255.997 246.213L255.996 246.213ZM255.996 0.000544817C339.308 0.00436063 408.005 62.5761 417.659 143.288L417.735 144.062C472.496 159.354 512 208.802 512 267.476C512 334.079 461.099 388.794 396.076 394.841L395.57 394.88V348.037C435.304 342.203 465.465 308.349 465.465 267.451C465.465 222.493 429.019 186.047 384.061 186.047C378.988 186.047 374.023 186.511 369.206 187.4L369.707 187.323C371.356 179.982 372.3 171.552 372.3 162.901C372.3 98.6748 320.235 46.6096 256.009 46.6096C191.783 46.6096 139.718 98.6753 139.718 162.901C139.718 171.552 140.662 179.983 142.454 188.095L142.311 187.323C137.793 186.433 132.599 185.924 127.286 185.924C82.3257 185.924 45.8786 222.371 45.8786 267.331C45.8786 306.978 74.2203 340.005 111.749 347.257L112.261 347.339L116.448 348.037V394.88C50.9101 388.803 0 334.084 0 267.474C0 208.802 39.5008 159.356 93.3594 144.277L94.2593 144.062C103.978 62.575 172.674 0 255.984 0C255.989 0 255.994 0 255.998 0H255.997L255.996 0.000544817Z" fill="black"/>
</svg>
