<svg width="465" height="512" viewBox="0 0 465 512" fill="none" xmlns="http://www.w3.org/2000/svg">
<path d="M429.019 227.376L458.3 244.94C461.873 247.107 464.223 250.974 464.223 255.391C464.223 259.808 461.872 263.676 458.354 265.811L458.299 265.842L232.112 401.554L5.92418 265.842C2.35117 263.676 0.000570636 259.808 0.000570636 255.391C0.000570636 250.974 2.35175 247.107 5.87051 244.971L5.92475 244.94L35.2059 227.376L232.112 345.525L429.019 227.376ZM429.019 341.871L458.3 359.435C461.873 361.601 464.223 365.469 464.223 369.885C464.223 374.302 461.872 378.17 458.354 380.306L458.299 380.336L244.657 508.521C241.077 510.706 236.746 512 232.112 512C227.478 512 223.147 510.706 219.458 508.46L219.566 508.521L5.92361 380.336C2.3506 378.17 0 374.302 0 369.885C0 365.469 2.35118 361.601 5.86994 359.465L5.92418 359.435L35.2053 341.871L232.112 460.019L429.018 341.871H429.019ZM244.634 3.4788L458.3 131.664C461.873 133.83 464.223 137.698 464.223 142.115C464.223 146.531 461.872 150.399 458.354 152.535L458.299 152.565L232.112 288.278L5.92418 152.565C2.35117 150.399 0.000570636 146.531 0.000570636 142.115C0.000570636 137.698 2.35175 133.83 5.87051 131.694L5.92475 131.664L219.567 3.4788C223.147 1.29377 227.478 0 232.112 0C236.746 0 241.077 1.29377 244.766 3.53989L244.658 3.4788H244.634Z" fill="black"/>
</svg>
