<svg width="512" height="512" viewBox="0 0 512 512" fill="none" xmlns="http://www.w3.org/2000/svg">
<path d="M421.725 348.05L384.9 311.173L421.725 274.348C445.531 250.744 460.269 218.028 460.269 181.869C460.269 109.953 401.969 51.6538 330.053 51.6538C293.895 51.6538 261.179 66.3916 237.584 90.188L237.575 90.1972L200.749 127.048L163.899 90.2228L200.776 53.3977C233.768 20.4058 279.345 0 329.689 0C430.376 0 512 81.6231 512 182.311C512 232.655 491.594 278.232 458.602 311.224L421.752 348.049L421.725 348.05ZM348.075 421.7L311.224 458.525C278.232 491.517 232.655 511.923 182.311 511.923C81.6237 511.923 0 430.3 0 329.612C0 279.268 20.4058 233.691 53.3977 200.699L90.2485 163.874L127.074 200.751L90.2485 237.576C66.4428 261.179 51.7051 293.896 51.7051 330.055C51.7051 401.971 110.005 460.27 181.92 460.27C218.079 460.27 250.795 445.532 274.39 421.736L274.399 421.726L311.224 384.901L348.075 421.726V421.7ZM329.637 145.461L366.487 182.312L182.337 366.436L145.486 329.611L329.637 145.486V145.461Z" fill="black"/>
</svg>
