<svg width="512" height="512" viewBox="0 0 512 512" fill="none" xmlns="http://www.w3.org/2000/svg">
<path d="M283.607 154.661L320.46 191.514C353.456 224.506 373.864 270.087 373.864 320.434C373.864 370.781 353.455 416.361 320.46 449.354L311.24 458.547C278.247 491.541 232.667 511.948 182.32 511.948C81.6279 511.948 0 430.32 0 329.627C0 279.281 20.4068 233.701 53.4004 200.707L90.2531 237.56C66.4462 261.165 51.7077 293.883 51.7077 330.044C51.7077 401.963 110.01 460.265 181.93 460.265C218.09 460.265 250.808 445.527 274.404 421.729L274.413 421.72L283.633 412.5C307.19 388.936 321.76 356.386 321.76 320.433C321.76 284.48 307.19 251.93 283.632 228.366L246.78 191.513L283.632 154.686L283.607 154.661ZM458.573 311.214L421.746 274.387C445.553 250.782 460.292 218.064 460.292 181.903C460.292 109.984 401.989 51.6815 330.07 51.6815C293.909 51.6815 261.192 66.42 237.595 90.2177L237.586 90.2268L228.366 99.4466C204.809 123.011 190.239 155.561 190.239 191.514C190.239 227.467 204.809 260.017 228.367 283.581L265.22 320.434L228.367 357.261L191.54 320.434C158.544 287.441 138.136 241.861 138.136 191.514C138.136 141.167 158.545 95.5863 191.54 62.5939L200.76 53.4004C233.753 20.4068 279.333 0 329.68 0C430.372 0 512 81.6273 512 182.32C512 232.667 491.593 278.247 458.6 311.24L458.573 311.214Z" fill="black"/>
</svg>
