<svg width="512" height="481" viewBox="0 0 512 481" fill="none" xmlns="http://www.w3.org/2000/svg">
<path d="M142.222 14.2227H512V71.1113H142.222V14.2227V14.2227ZM42.6667 85.3333C19.1027 85.3333 0 66.2307 0 42.6667C0 19.1027 19.1027 0 42.6667 0C66.2307 0 85.3333 19.1027 85.3333 42.6667C85.3333 66.2307 66.2307 85.3333 42.6667 85.3333ZM42.6667 284.445C19.1027 284.445 0 265.342 0 241.778C0 218.214 19.1027 199.111 42.6667 199.111C66.2307 199.111 85.3333 218.214 85.3333 241.778C85.3333 265.342 66.2307 284.445 42.6667 284.445ZM42.6667 480.711C19.1027 480.711 0 461.609 0 438.045C0 414.481 19.1027 395.378 42.6667 395.378C66.2307 395.378 85.3333 414.481 85.3333 438.045C85.3333 461.609 66.2307 480.711 42.6667 480.711ZM142.222 213.333H512V270.222H142.222V213.333V213.333ZM142.222 412.445H512V469.333H142.222V412.445V412.445Z" fill="black"/>
</svg>
