<svg width="461" height="512" viewBox="0 0 461 512" fill="none" xmlns="http://www.w3.org/2000/svg">
<path d="M409.599 204.8H435.2C449.338 204.8 460.8 216.262 460.8 230.4V486.4C460.8 500.538 449.338 512 435.2 512H25.6002C11.4618 512 0 500.538 0 486.4V230.4C0 216.262 11.4618 204.8 25.6002 204.8H51.2003V179.2C51.2003 80.2306 131.431 0 230.4 0C329.369 0 409.6 80.2306 409.6 179.2V204.8H409.599ZM51.1997 256V460.799H409.599V256H51.1997V256ZM204.799 307.199H255.999V409.599H204.799V307.199V307.199ZM358.399 204.8V179.2C358.399 108.507 301.091 51.2003 230.4 51.2003C159.708 51.2003 102.4 108.508 102.4 179.2V204.8H358.4H358.399Z" fill="black"/>
</svg>
