<svg width="512" height="512" viewBox="0 0 512 512" fill="none" xmlns="http://www.w3.org/2000/svg">
<path d="M109.185 46.2594L138.548 88.2179C85.4507 125.734 51.201 186.863 51.201 255.991C51.201 369.099 142.893 460.791 256.001 460.791C369.108 460.791 460.8 369.099 460.8 255.991C460.8 186.863 426.55 125.734 374.094 88.6481L373.453 88.2179L402.816 46.2594C469.184 93.0905 512 169.453 512 255.816C512 255.881 512 255.945 512 256.01V256C512 397.389 397.389 512 256 512C114.611 512 0 397.389 0 256C0 255.945 0 255.881 0 255.816C0 169.453 42.8166 93.0905 108.38 46.7976L109.184 46.2594H109.185ZM230.4 256V0H281.6V256H230.4V256Z" fill="black"/>
</svg>
