<svg width="512" height="512" viewBox="0 0 512 512" fill="none" xmlns="http://www.w3.org/2000/svg">
<path d="M135.449 481.894L0 511.999L30.1055 376.55C11.1474 341.773 0 300.38 0 256.384C0 256.249 -3.29618e-07 256.114 0.000599669 255.979V256C0.000599669 114.611 114.612 0 256 0C397.389 0 512 114.611 512 256C512 397.388 397.389 511.999 256 511.999C255.886 511.999 255.751 511.999 255.616 511.999C211.62 511.999 170.227 500.852 134.109 481.227L135.45 481.893L135.449 481.894ZM142.873 427.801L159.589 436.761C187.37 451.899 220.432 460.8 255.574 460.8C255.723 460.8 255.873 460.8 256.022 460.799H255.999C369.106 460.799 460.798 369.107 460.798 256C460.798 142.892 369.106 51.2003 255.999 51.2003C142.891 51.2003 51.1991 142.892 51.1991 256C51.1991 290.15 59.5193 323.02 75.2633 352.409L84.1978 369.126L67.4297 444.569L142.873 427.801Z" fill="black"/>
</svg>
