<svg width="512" height="114" viewBox="0 0 512 114" fill="none" xmlns="http://www.w3.org/2000/svg">
<path d="M56.8887 0C25.6 0 0 25.6 0 56.8887C0 88.1773 25.6 113.777 56.8887 113.777C88.1773 113.777 113.777 88.1773 113.777 56.8887C113.777 25.6 88.1773 0 56.8887 0V0ZM455.111 0C423.823 0 398.223 25.6 398.223 56.8887C398.223 88.1773 423.823 113.777 455.111 113.777C486.4 113.777 512 88.1773 512 56.8887C512 25.6 486.4 0 455.111 0V0ZM256 0C224.711 0 199.111 25.6 199.111 56.8887C199.111 88.1773 224.711 113.777 256 113.777C287.289 113.777 312.889 88.1773 312.889 56.8887C312.889 25.6 287.289 0 256 0V0Z" fill="black"/>
</svg>
