<svg width="114" height="512" viewBox="0 0 114 512" fill="none" xmlns="http://www.w3.org/2000/svg">
<path d="M56.8887 0C25.6 0 0 25.6 0 56.8887C0 88.1774 25.6 113.777 56.8887 113.777C88.1775 113.777 113.777 88.1774 113.777 56.8887C113.777 25.6 88.1775 0 56.8887 0ZM56.8887 398.223C25.6 398.223 0 423.823 0 455.111C0 486.4 25.6 512 56.8887 512C88.1775 512 113.777 486.4 113.777 455.111C113.777 423.823 88.1775 398.223 56.8887 398.223ZM56.8887 199.112C25.6 199.112 0 224.712 0 256C0 287.289 25.6 312.889 56.8887 312.889C88.1775 312.889 113.777 287.289 113.777 256C113.777 224.712 88.1775 199.112 56.8887 199.112V199.112Z" fill="black"/>
</svg>
