<svg width="461" height="512" viewBox="0 0 461 512" fill="none" xmlns="http://www.w3.org/2000/svg">
<path d="M179.2 0.000599669C193.331 0.000599669 204.8 11.4696 204.8 25.6007V128.001C204.8 142.132 193.331 153.601 179.2 153.601H128V204.801H256V179.2C256 165.069 267.469 153.6 281.6 153.6H435.2C449.331 153.6 460.8 165.069 460.8 179.2V281.6C460.8 295.732 449.331 307.201 435.2 307.201H281.6C267.469 307.201 256 295.732 256 281.6V256H128V409.6H256V384C256 369.869 267.469 358.4 281.6 358.4H435.2C449.331 358.4 460.8 369.869 460.8 384V486.4C460.8 500.531 449.331 512 435.2 512H281.6C267.469 512 256 500.531 256 486.4V460.8H102.4C88.2688 460.8 76.7999 449.331 76.7999 435.2V153.6H25.6002C11.469 153.6 0 142.131 0 128V25.6002C0 11.469 11.469 0 25.6002 0H179.2V0.000599669ZM409.599 409.6H307.199V460.8H409.599V409.6ZM409.599 204.801H307.199V256H409.599V204.801V204.801ZM153.6 51.2009H51.1997V102.401H153.6V51.2009Z" fill="black"/>
</svg>
