<svg width="429" height="512" viewBox="0 0 429 512" fill="none" xmlns="http://www.w3.org/2000/svg">
<path d="M47.6279 381.023H381.023V215.064C381.023 122.594 306.39 47.6279 214.325 47.6279C122.261 47.6279 47.6279 122.594 47.6279 215.064V381.023ZM214.325 0C332.681 0 428.651 96.2796 428.651 215.064V428.651H0V215.064C0 96.2796 95.9701 0 214.325 0ZM154.79 452.465H273.86C273.86 468.254 267.587 483.397 256.423 494.563C245.257 505.727 230.114 512 214.325 512C198.536 512 183.392 505.727 172.227 494.563C161.062 483.397 154.79 468.254 154.79 452.465H154.79Z" fill="black"/>
</svg>
