<svg width="425" height="512" viewBox="0 0 425 512" fill="none" xmlns="http://www.w3.org/2000/svg">
<path d="M212.077 512L62.1149 362.038C23.7372 323.659 0 270.64 0 212.077C0 94.9504 94.9504 0 212.077 0C329.204 0 424.155 94.9504 424.155 212.077C424.155 270.64 400.417 323.659 362.039 362.038L212.077 512ZM328.72 328.718C358.566 298.868 377.027 257.634 377.027 212.087C377.027 120.988 303.176 47.1381 212.077 47.1381C120.979 47.1381 47.1281 120.988 47.1281 212.087C47.1281 257.634 65.5882 298.869 95.4348 328.718L212.077 445.361L328.72 328.718V328.718ZM212.077 259.204C186.049 259.204 164.949 238.104 164.949 212.076C164.949 186.048 186.049 164.948 212.077 164.948C238.105 164.948 259.205 186.048 259.205 212.076C259.205 238.104 238.105 259.204 212.077 259.204Z" fill="black"/>
</svg>
