<svg width="425" height="512" viewBox="0 0 425 512" fill="none" xmlns="http://www.w3.org/2000/svg">
<path d="M362.04 362.038L212.077 512L62.1149 362.038C23.7372 323.659 0 270.64 0 212.077C0 94.9504 94.9504 0 212.077 0C329.204 0 424.155 94.9504 424.155 212.077C424.155 270.64 400.417 323.659 362.039 362.038L362.04 362.038ZM212.077 259.204C238.105 259.204 259.205 238.104 259.205 212.076C259.205 186.048 238.105 164.948 212.077 164.948C186.049 164.948 164.949 186.048 164.949 212.076C164.949 238.104 186.049 259.204 212.077 259.204Z" fill="black"/>
</svg>
