<svg width="512" height="512" viewBox="0 0 512 512" fill="none" xmlns="http://www.w3.org/2000/svg">
<path d="M256 512C114.611 512 0 397.389 0 256C0 114.611 114.611 0 256 0C397.389 0 512 114.611 512 256C512 397.389 397.389 512 256 512V512ZM256 460.8C310.316 460.8 362.409 439.221 400.817 400.817C439.222 362.409 460.8 310.316 460.8 256C460.8 201.684 439.221 149.592 400.817 111.185C362.409 72.7769 310.316 51.2004 256 51.2004C201.684 51.2004 149.592 72.7775 111.185 111.185C72.7775 149.592 51.2004 201.684 51.2004 256C51.2004 310.316 72.7775 362.409 111.185 400.817C149.592 439.222 201.684 460.8 256 460.8ZM220.723 164.224L345.626 247.475C347.031 248.409 348.183 249.677 348.979 251.164C349.775 252.651 350.192 254.313 350.192 256C350.192 257.687 349.775 259.349 348.979 260.836C348.183 262.323 347.031 263.591 345.626 264.525L220.698 347.776C219.156 348.797 217.37 349.381 215.524 349.471C213.678 349.558 211.843 349.143 210.212 348.27C208.581 347.4 207.219 346.104 206.267 344.52C205.313 342.938 204.808 341.125 204.8 339.277V172.724C204.803 170.871 205.31 169.055 206.265 167.468C207.217 165.88 208.584 164.581 210.218 163.709C211.853 162.837 213.692 162.425 215.543 162.515C217.394 162.606 219.183 163.197 220.724 164.225L220.723 164.224Z" fill="black"/>
</svg>
