<svg width="512" height="512" viewBox="0 0 512 512" fill="none" xmlns="http://www.w3.org/2000/svg">
<path d="M102.4 435.2H25.6002C11.4618 435.2 0 423.738 0 409.6V153.6C0 139.462 11.4618 128 25.6002 128H102.4V25.6001C102.4 11.4618 113.862 0 128 0H384C398.138 0 409.6 11.4618 409.6 25.6001V128H486.4C500.538 128 512 139.462 512 153.6V409.6C512 423.738 500.538 435.2 486.4 435.2H409.6V486.4C409.6 500.538 398.138 512 384 512H128C113.862 512 102.4 500.538 102.4 486.4V435.2V435.2ZM102.4 384V358.4C102.4 344.261 113.862 332.8 128 332.8H384C398.138 332.8 409.6 344.261 409.6 358.4V384H460.8V179.2H51.2003V384H102.4ZM153.6 51.2009V128.001H358.399V51.2009H153.6V51.2009ZM153.6 384V460.8H358.399V384H153.6ZM76.7998 204.801H153.6V256H76.7998V204.801V204.801Z" fill="black"/>
</svg>
