<svg width="512" height="512" viewBox="0 0 512 512" fill="none" xmlns="http://www.w3.org/2000/svg">
<path d="M256 512C114.611 512 0 397.389 0 256C0 114.611 114.611 0 256 0C397.389 0 512 114.611 512 256C512 397.389 397.389 512 256 512V512ZM256 460.8C369.108 460.8 460.8 369.108 460.8 256C460.8 142.892 369.108 51.2004 256 51.2004C142.892 51.2004 51.2004 142.892 51.2004 256C51.2004 369.108 142.892 460.8 256 460.8ZM230.4 332.8H281.6V384H230.4V332.8V332.8ZM281.6 290.688V307.2H230.4V268.8C230.4 254.661 241.862 243.2 256.001 243.2C277.207 243.198 294.398 226.007 294.398 204.8C294.398 183.592 277.206 166.4 255.998 166.4C237.454 166.4 221.98 179.544 218.385 197.025L218.343 197.273L168.116 187.212C176.611 145.842 212.723 115.171 255.999 115.171C305.498 115.171 345.625 155.297 345.625 204.796C345.625 245.166 318.933 279.303 282.236 290.52L281.601 290.687L281.6 290.688Z" fill="black"/>
</svg>
