<svg width="512" height="512" viewBox="0 0 512 512" fill="none" xmlns="http://www.w3.org/2000/svg">
<path d="M88.6529 62.2848C133.123 23.5884 191.628 0 255.644 0C255.769 0 255.894 0 256.019 0H256C397.389 0 512 114.611 512 256C512 310.682 494.848 361.37 465.664 402.944L384 256H460.8C460.8 255.995 460.8 255.989 460.8 255.983C460.8 142.875 369.108 51.1836 256 51.1836C200.919 51.1836 150.916 72.9281 114.109 108.302L114.176 108.237L88.6529 62.2848V62.2848ZM423.347 449.715C378.878 488.412 320.372 512 256.356 512C256.231 512 256.106 512 255.981 512H256C114.611 512 0 397.389 0 256C0 201.318 17.1522 150.63 46.3362 109.056L128 256H51.2004C51.2004 256.005 51.2004 256.011 51.2004 256.017C51.2004 369.125 142.892 460.816 256 460.816C311.081 460.816 361.084 439.072 397.892 403.698L397.824 403.763L423.347 449.715V449.715Z" fill="black"/>
</svg>
