<svg width="512" height="476" viewBox="0 0 512 476" fill="none" xmlns="http://www.w3.org/2000/svg">
<path d="M52.7844 316.7V369.484C52.7844 397.301 77.8563 422.267 105.568 422.267H184.743V475.05H105.568C47.2644 475.05 0.000618216 427.786 0.000618216 369.483V316.7H52.7838L52.7844 316.7ZM395.877 184.742L512 475.051H455.126L423.429 395.875H315.487L283.843 475.051H226.996L343.093 184.742H395.876H395.877ZM369.485 260.882L336.575 343.092H402.343L369.485 260.882ZM0.00123643 0H158.351C202.067 0.0160824 237.498 35.4581 237.498 79.1751C237.498 99.4891 229.848 118.016 217.271 132.033L217.336 131.959C229.848 145.901 237.497 164.429 237.497 184.742C237.497 228.459 202.065 263.901 158.352 263.917H0V0H0.00123643ZM158.351 158.35H52.7844V211.133H158.351C172.927 211.133 184.743 199.317 184.743 184.741C184.743 170.166 172.927 158.35 158.351 158.35V158.35ZM369.485 0C427.788 0 475.052 47.2638 475.052 105.567V158.35H422.269V105.567C422.269 76.4157 398.637 52.7838 369.485 52.7838H290.31V0.000622935H369.485L369.485 0ZM158.351 52.7832H52.7844V105.566H158.351C172.927 105.566 184.743 93.7501 184.743 79.1745C184.743 64.5988 172.927 52.7826 158.351 52.7826V52.7832Z" fill="black"/>
</svg>
