<svg width="512" height="512" viewBox="0 0 512 512" fill="none" xmlns="http://www.w3.org/2000/svg">
<path d="M423.347 449.715C378.878 488.412 320.372 512 256.356 512C256.231 512 256.106 512 255.981 512H256C114.611 512 0 397.389 0 256C0 114.611 114.611 0 256 0C397.389 0 512 114.611 512 256C512 310.682 494.848 361.37 465.664 402.944L384 256H460.8C460.79 142.899 369.102 51.2172 256 51.2172C142.892 51.2172 51.2004 142.909 51.2004 256.017C51.2004 369.125 142.892 460.816 256 460.816C311.081 460.816 361.084 439.072 397.892 403.698L397.824 403.763L423.347 449.715V449.715Z" fill="black"/>
</svg>
