<svg width="512" height="512" viewBox="0 0 512 512" fill="none" xmlns="http://www.w3.org/2000/svg">
<path d="M123.136 305.815L56.7155 372.259L139.741 455.285L455.286 139.741L372.26 56.7149L322.421 106.53L355.654 139.741L322.421 172.951L289.21 139.741L239.395 189.58L289.21 239.371L256 272.629L206.185 222.813L156.346 272.629L189.579 305.839L156.346 339.073L123.135 305.839L123.136 305.815ZM388.864 6.87647L505.124 123.136C509.372 127.386 512 133.257 512 139.741C512 146.225 509.372 152.096 505.124 156.346L156.346 505.124C152.095 509.372 146.225 512 139.741 512C133.257 512 127.385 509.372 123.136 505.124L6.87647 388.864C2.62794 384.614 0 378.743 0 372.259C0 365.775 2.62794 359.904 6.87647 355.654L355.654 6.87647C359.905 2.62794 365.775 0 372.259 0C378.743 0 384.615 2.62794 388.864 6.87647V6.87647Z" fill="black"/>
</svg>
