<svg width="512" height="512" viewBox="0 0 512 512" fill="none" xmlns="http://www.w3.org/2000/svg">
<path d="M404.05 368.411L512 476.336L476.336 512L368.411 404.05C330.098 434.966 280.814 453.678 227.16 453.678C227.047 453.678 226.934 453.678 226.821 453.678H226.839C101.624 453.678 0 352.054 0 226.839C0 101.624 101.624 0 226.839 0C352.054 0 453.678 101.624 453.678 226.839C453.678 226.934 453.678 227.047 453.678 227.16C453.678 280.815 434.966 330.099 403.713 368.843L404.05 368.412V368.411ZM353.49 349.709C384.28 318.071 403.269 274.81 403.269 227.115C403.269 227.018 403.269 226.92 403.269 226.823V226.838C403.269 129.348 324.303 50.4078 226.838 50.4078C129.348 50.4078 50.4078 129.348 50.4078 226.838C50.4078 324.303 129.348 403.269 226.838 403.269C226.92 403.269 227.018 403.269 227.115 403.269C274.81 403.269 318.071 384.28 349.749 353.451L349.709 353.49L353.49 349.709V349.709Z" fill="black"/>
</svg>
