<svg width="494" height="512" viewBox="0 0 494 512" fill="none" xmlns="http://www.w3.org/2000/svg">
<path d="M25.0324 383.977C14.9421 366.87 6.40506 347.104 0.442721 326.251L0 324.442C25.1079 311.471 41.9757 285.705 41.9757 256C41.9757 226.315 25.1307 200.564 0.478717 187.785L0.0509904 187.583C12.3356 144.038 34.5209 106.643 64.1016 76.5386L64.0656 76.5758C75.8739 84.3552 90.3559 88.9852 105.92 88.9852C148.327 88.9852 182.706 54.6065 182.706 12.1988C182.706 10.7687 182.667 9.34814 182.59 7.93719L182.598 8.13335C201.798 2.96707 223.841 0 246.577 0C269.385 0 291.496 2.98627 312.54 8.58927L310.754 8.18494C310.687 9.38833 310.649 10.7969 310.649 12.2144C310.649 54.6221 345.027 89.0008 387.435 89.0008C403.008 89.0008 417.499 84.3648 429.602 76.397L429.312 76.5758C444.132 91.6769 457.289 108.852 468.346 128.023C479.429 147.193 487.722 167.184 493.378 187.558C468.27 200.529 451.402 226.295 451.402 256C451.402 285.685 468.247 311.436 492.899 324.215L493.327 324.417C481.042 367.962 458.857 405.357 429.276 435.461L429.312 435.424C417.504 427.645 403.022 423.015 387.459 423.015C345.051 423.015 310.672 457.393 310.672 499.801C310.672 501.231 310.711 502.652 310.789 504.063L310.78 503.867C291.581 509.033 269.537 512 246.801 512C223.993 512 201.882 509.014 180.838 503.411L182.624 503.815C182.691 502.612 182.729 501.203 182.729 499.786C182.729 457.378 148.351 422.999 105.943 422.999C90.3697 422.999 75.8793 427.635 63.7765 435.603L64.0656 435.424C49.334 420.401 36.4057 403.521 25.688 385.191L25.0324 383.977V383.977ZM169.902 388.994C196.943 404.792 217.323 429.488 227.229 458.992L227.492 459.894C240.264 461.097 253.088 461.122 265.86 459.92C276.036 429.51 296.425 404.813 322.87 389.347L323.475 389.02C341.829 378.219 363.908 371.839 387.476 371.839C396.762 371.839 405.816 372.83 414.54 374.71L413.699 374.558C421.122 364.115 427.521 352.981 432.845 341.336C412.626 318.825 400.261 288.903 400.261 256.092C400.261 256.06 400.261 256.027 400.261 255.995V256C400.261 223.75 412.291 193.624 432.845 170.665C426.923 157.921 420.522 147.022 413.22 136.812L413.648 137.442C405.767 139.17 396.714 140.16 387.43 140.16C363.88 140.16 341.819 133.791 322.873 122.68L323.476 123.006C296.435 107.209 276.055 82.5129 266.149 53.0084L265.886 52.1067C253.114 50.904 240.29 50.8782 227.519 52.0809C217.343 82.4901 196.953 107.187 170.508 122.654L169.903 122.981C151.549 133.782 129.47 140.161 105.902 140.161C96.6164 140.161 87.5616 139.171 78.8386 137.29L79.679 137.442C72.7982 147.026 66.4118 157.927 61.0601 169.407L60.5334 170.665C80.7522 193.176 93.1167 223.099 93.1167 255.909C93.1167 255.942 93.1167 255.974 93.1167 256.006V256.001C93.1167 288.251 81.087 318.377 60.5334 341.336C66.455 354.08 72.8558 364.979 80.1583 375.189L79.73 374.559C87.6108 372.831 96.6638 371.841 105.948 371.841C129.498 371.841 151.559 378.211 170.505 389.321L169.902 388.995V388.994ZM246.689 332.787C204.281 332.787 169.902 298.408 169.902 256C169.902 213.593 204.281 179.214 246.689 179.214C289.096 179.214 323.475 213.593 323.475 256C323.475 298.408 289.096 332.787 246.689 332.787ZM246.689 281.596C260.825 281.596 272.284 270.136 272.284 256C272.284 241.864 260.825 230.405 246.689 230.405C232.553 230.405 221.093 241.864 221.093 256C221.093 270.136 232.553 281.596 246.689 281.596Z" fill="black"/>
</svg>
