<svg width="443" height="512" viewBox="0 0 443 512" fill="none" xmlns="http://www.w3.org/2000/svg">
<path d="M221.091 0L442.181 128V384L221.091 512L0 384V128L221.091 0ZM221.091 53.7829L46.5453 154.833V357.166L221.091 458.217L395.636 357.166V154.833L221.091 53.7829V53.7829ZM221.091 349.091C169.678 349.091 128 307.413 128 256C128 204.587 169.678 162.909 221.091 162.909C272.504 162.909 314.182 204.587 314.182 256C314.182 307.413 272.504 349.091 221.091 349.091ZM221.091 302.545C246.797 302.545 267.636 281.706 267.636 256C267.636 230.294 246.797 209.454 221.091 209.454C195.384 209.454 174.545 230.294 174.545 256C174.545 281.706 195.384 302.545 221.091 302.545Z" fill="black"/>
</svg>
