<svg width="512" height="512" viewBox="0 0 512 512" fill="none" xmlns="http://www.w3.org/2000/svg">
<path d="M284.444 199.111V312.889H455.111V199.111H284.444V199.111ZM227.555 199.111H56.8886V312.889H227.555V199.111V199.111ZM284.444 455.111H455.111V369.778H284.444V455.111ZM227.555 455.111V369.778H56.8886V455.111H227.555ZM284.444 56.8886V142.222H455.111V56.8886H284.444V56.8886ZM227.555 56.8886H56.8886V142.222H227.555V56.8886V56.8886ZM28.4446 0H483.555C499.265 0 512 12.7353 512 28.4446V483.555C512 499.265 499.265 512 483.555 512H28.4446C12.7353 512 0 499.265 0 483.555V28.4446C0 12.7353 12.7353 0 28.4446 0V0Z" fill="black"/>
</svg>
