<svg width="512" height="512" viewBox="0 0 512 512" fill="none" xmlns="http://www.w3.org/2000/svg">
<path d="M233.498 0L477.168 34.831L511.975 278.526L285.708 504.793C281.254 509.246 275.101 512 268.305 512C261.509 512 255.356 509.246 250.902 504.793L7.207 261.098C2.75426 256.644 0 250.491 0 243.695C0 236.899 2.75426 230.746 7.207 226.292L233.499 0H233.498ZM250.901 52.2346L59.4162 243.695L268.304 452.559L459.765 261.099L433.672 78.3274L250.901 52.2346H250.901ZM303.086 208.888C294.177 199.976 288.668 187.666 288.668 174.069C288.668 146.869 310.718 124.819 337.918 124.819C351.521 124.819 363.836 130.334 372.749 139.25C381.658 148.162 387.167 160.472 387.167 174.069C387.167 201.269 365.117 223.319 337.917 223.319C324.314 223.319 311.999 217.804 303.086 208.888Z" fill="black"/>
</svg>
