<svg width="512" height="512" viewBox="0 0 512 512" fill="none" xmlns="http://www.w3.org/2000/svg">
<path d="M233.498 0L477.168 34.831L511.975 278.526L285.708 504.793C281.254 509.246 275.101 512 268.305 512C261.509 512 255.356 509.246 250.902 504.793L7.207 261.098C2.75426 256.644 0 250.491 0 243.695C0 236.899 2.75426 230.746 7.207 226.292L233.499 0H233.498ZM303.111 208.888C312.02 217.794 324.325 223.302 337.918 223.302C365.109 223.302 387.151 201.26 387.151 174.069C387.151 160.471 381.638 148.161 372.725 139.251C363.816 130.345 351.51 124.837 337.918 124.837C310.727 124.837 288.685 146.879 288.685 174.069C288.685 187.668 294.198 199.978 303.111 208.888Z" fill="black"/>
</svg>
