<svg width="512" height="512" viewBox="0 0 512 512" fill="none" xmlns="http://www.w3.org/2000/svg">
<path d="M68.8516 6.02826C79.2196 2.20907 91.1928 0 103.682 0C160.922 0 207.323 46.4015 207.323 103.64C207.323 121.725 202.691 138.727 194.548 153.526L194.819 152.99L511.929 470.129L470.058 512L152.918 194.861C138.687 202.683 121.731 207.285 103.7 207.285C46.4279 207.285 0 160.857 0 103.585C0 91.1366 2.1938 79.2002 6.21495 68.1417L5.98592 68.8627L72.2267 135.103C80.3148 143.469 91.6384 148.663 104.175 148.663C128.706 148.663 148.592 128.777 148.592 104.246C148.592 91.7092 143.398 80.3856 135.045 72.3092L135.033 72.2974L68.8211 5.99703L68.8516 6.02826ZM375.835 61.8164L470.058 9.46296L511.929 51.3339L459.576 145.558L407.222 156.04L344.446 218.846L302.546 176.975L365.352 114.169L375.835 61.8157V61.8164ZM176.904 302.617L218.775 344.488L61.7456 501.518C56.3843 506.894 48.9694 510.22 40.7778 510.22C24.424 510.22 11.1661 496.962 11.1661 480.608C11.1661 473.634 13.5771 467.223 17.6115 462.162L17.5657 462.222L19.8753 459.646L176.905 302.616L176.904 302.617Z" fill="black"/>
</svg>
