<svg width="512" height="512" viewBox="0 0 512 512" fill="none" xmlns="http://www.w3.org/2000/svg">
<path d="M384 102.4H512V153.6H460.8V486.4C460.8 500.539 449.338 512.001 435.2 512.001H76.8C62.6616 512.001 51.1998 500.539 51.1998 486.4V153.6H0V102.4H128V25.6002C128 11.4618 139.462 0 153.6 0H358.4C372.538 0 384 11.4618 384 25.6002V102.4V102.4ZM409.6 153.6H102.4V460.8H409.6V153.6V153.6ZM179.2 230.4H230.4V384H179.2V230.4V230.4ZM281.6 230.4H332.8V384H281.6V230.4V230.4ZM179.2 51.2004V102.4H332.8V51.2004H179.2Z" fill="black"/>
</svg>
