<svg width="512" height="512" viewBox="0 0 512 512" fill="none" xmlns="http://www.w3.org/2000/svg">
<path d="M384 384H512V435.2H435.2V512H384V384ZM128 128H0V76.8001H76.8001V0H128V128ZM418.919 346.522L382.72 310.272L418.919 274.073C442.319 250.871 456.807 218.711 456.807 183.168C456.807 112.475 399.499 55.1677 328.807 55.1677C293.263 55.1677 261.104 69.6547 237.91 93.0463L237.901 93.0553L201.702 129.279L165.478 93.0805L201.728 56.8819C234.159 24.4512 278.961 4.39261 328.448 4.39261C427.423 4.39261 507.658 84.6271 507.658 183.602C507.658 233.09 487.599 277.892 455.169 310.322L418.945 346.521L418.919 346.522ZM346.522 418.919L310.298 455.118C277.867 487.548 233.065 507.607 183.577 507.607C84.6031 507.607 4.36801 427.372 4.36801 328.397C4.36801 278.91 24.4266 234.108 56.8573 201.677L93.0811 165.478L129.28 201.728L93.0811 237.927C69.6805 261.129 55.1935 293.289 55.1935 328.832C55.1935 399.525 112.501 456.832 183.193 456.832C218.737 456.832 250.896 442.345 274.09 418.954L274.099 418.945L310.298 382.746L346.522 418.945V418.919ZM328.397 147.379L364.621 183.603L183.603 364.595L147.379 328.396L328.397 147.404V147.379Z" fill="black"/>
</svg>
