<svg width="512" height="512" viewBox="0 0 512 512" fill="none" xmlns="http://www.w3.org/2000/svg">
<path d="M0 512C0 460.27 20.5494 410.66 57.1284 374.08C93.7067 337.503 143.318 316.953 195.048 316.953C246.776 316.953 296.389 337.503 332.967 374.08C369.546 410.659 390.096 460.27 390.096 512H341.333C341.333 473.203 325.922 435.994 298.489 408.561C271.053 381.128 233.846 365.714 195.048 365.714C156.251 365.714 119.043 381.128 91.6091 408.561C64.1754 435.994 48.7632 473.203 48.7632 512H0.00119934H0ZM195.048 292.572C114.225 292.572 48.762 227.108 48.762 146.286C48.762 65.4629 114.225 0 195.048 0C275.871 0 341.333 65.4629 341.333 146.286C341.333 227.108 275.871 292.572 195.048 292.572ZM195.048 243.809C248.93 243.809 292.572 200.168 292.572 146.286C292.572 92.4041 248.93 48.762 195.048 48.762C141.166 48.762 97.5239 92.4035 97.5239 146.286C97.5239 200.168 141.166 243.809 195.048 243.809V243.809ZM397.02 334.093C431.283 349.524 460.36 374.523 480.758 406.083C501.156 437.643 512.005 474.422 512 512H463.237C463.245 483.814 455.109 456.228 439.811 432.556C424.512 408.886 402.701 390.136 377.004 378.563L396.995 334.094H397.021L397.02 334.093ZM380.244 58.8318C404.81 68.9573 425.812 86.1515 440.589 108.233C455.365 130.315 463.247 156.288 463.237 182.858C463.247 216.315 450.747 248.569 428.19 273.283C405.634 297.995 374.653 313.38 341.332 316.416V267.339C359.398 264.75 376.158 256.441 389.15 243.626C402.145 230.813 410.69 214.17 413.529 196.144C416.367 178.118 413.352 159.654 404.927 143.467C396.502 127.28 383.108 114.22 366.714 106.204L380.243 58.8324L380.244 58.8318Z" fill="black"/>
</svg>
