<svg width="391" height="512" viewBox="0 0 391 512" fill="none" xmlns="http://www.w3.org/2000/svg">
<path d="M0 512C0 404.278 87.3257 316.953 195.047 316.953C302.769 316.953 390.095 404.278 390.095 512H341.333C341.333 431.209 275.839 365.714 195.047 365.714C114.256 365.714 48.7617 431.209 48.7617 512H0V512ZM195.047 292.571C114.225 292.571 48.7617 227.109 48.7617 146.286C48.7617 65.4629 114.225 0 195.047 0C275.87 0 341.333 65.4629 341.333 146.286C341.333 227.109 275.87 292.571 195.047 292.571ZM195.047 243.809C248.929 243.809 292.571 200.167 292.571 146.285C292.571 92.4029 248.93 48.7611 195.047 48.7611C141.165 48.7611 97.5234 92.4029 97.5234 146.285C97.5234 200.167 141.165 243.809 195.047 243.809V243.809Z" fill="black"/>
</svg>
