<svg width="512" height="497" viewBox="0 0 512 497" fill="none" xmlns="http://www.w3.org/2000/svg">
<path d="M49.9033 423.81L15.7915 410.04C6.45281 406.188 0 397.156 0 386.616C0 383.201 0.6775 379.944 1.90517 376.972L1.84358 377.14L49.9033 258.178V423.81V423.81ZM172.706 476.317H125.707C111.752 476.317 100.439 465.004 100.439 451.049V297.47L172.706 476.317ZM100.995 96.4889L335.28 1.83528C338.077 0.674536 341.326 0 344.733 0C355.27 0 364.3 6.44926 368.092 15.615L368.154 15.7826L510.16 367.21C511.324 370.011 512 373.265 512 376.676C512 387.224 505.537 396.263 496.355 400.048L496.187 400.109L261.902 494.763C259.101 495.927 255.847 496.603 252.435 496.603C241.887 496.603 232.849 490.139 229.064 480.958L229.003 480.789L87.0472 129.388C85.8888 126.593 85.2155 123.347 85.2155 119.943C85.2155 109.399 91.6748 100.362 100.852 96.5754L101.021 96.5138L100.995 96.4889ZM176.243 173.101C190.198 173.101 201.511 161.788 201.511 147.833C201.511 133.878 190.198 122.565 176.243 122.565C162.288 122.565 150.975 133.878 150.975 147.833C150.975 161.788 162.288 173.101 176.243 173.101Z" fill="black"/>
</svg>
