<svg width="512" height="497" viewBox="0 0 512 497" fill="none" xmlns="http://www.w3.org/2000/svg">
<path d="M94.4765 147.834L87.0222 129.388C85.8579 126.587 85.1822 123.333 85.1822 119.922C85.1822 109.374 91.6457 100.335 100.827 96.5504L100.996 96.4888L335.28 1.83528C338.078 0.674535 341.326 0 344.733 0C355.27 0 364.3 6.44925 368.092 15.615L368.154 15.7826L510.16 367.209C511.324 370.01 512 373.264 512 376.676C512 387.224 505.537 396.262 496.355 400.047L496.187 400.109L261.902 494.762C259.101 495.927 255.848 496.602 252.436 496.602C241.888 496.602 232.849 490.139 229.064 480.957L229.003 480.789L226.779 475.306V476.317H125.707C111.752 476.317 100.439 465.003 100.439 451.048V444.226L15.7915 410.038C6.4528 406.187 0 397.155 0 386.615C0 383.2 0.677494 379.943 1.90516 376.971L1.84357 377.139L94.4759 147.832L94.4765 147.834ZM150.975 425.782H206.792L150.975 287.642V425.782V425.782ZM100.44 268.009L58.1664 372.644L100.44 390.609V268.009ZM143.345 133.861L266.4 438.441L453.837 362.713L330.782 58.1587L143.345 133.861ZM218.592 185.231C215.792 186.394 212.54 187.069 209.129 187.069C195.171 187.069 183.855 175.754 183.855 161.795C183.855 151.246 190.317 142.207 199.499 138.42L199.667 138.359C202.47 137.193 205.728 136.516 209.142 136.516C223.104 136.516 234.421 147.834 234.421 161.794C234.421 172.341 227.963 181.379 218.785 185.169L218.617 185.231H218.592Z" fill="black"/>
</svg>
