<svg width="512" height="450" viewBox="0 0 512 450" fill="none" xmlns="http://www.w3.org/2000/svg">
<path d="M277.062 12.1596L508.742 413.453C510.79 416.941 512 421.136 512 425.613C512 439.045 501.112 449.934 487.68 449.934H24.3204C10.8885 449.934 0 439.045 0 425.613C0 421.136 1.21015 416.941 3.32036 413.338L3.25823 413.452L234.938 12.1591C239.222 4.83889 247.046 0 256 0C264.954 0 272.779 4.83889 277 12.0445L277.062 12.1591V12.1596ZM66.4437 401.293H445.556L256 72.9618L66.4437 401.293V401.293ZM231.679 328.33H280.32V376.972H231.679V328.33V328.33ZM231.679 158.084H280.32V279.688H231.679V158.084V158.084Z" fill="black"/>
</svg>
